<?xml version="1.0" encoding="UTF-8"?>
<svg version="1.1" xmlns="http://www.w3.org/2000/svg" width="512" height="512">
<path d="M0 0 C1.01790619 0.00215515 2.03581238 0.0043103 3.08456421 0.00653076 C17.69363523 0.05620146 32.02575853 0.30709809 46.375 3.3125 C47.34985352 3.51117676 48.32470703 3.70985352 49.32910156 3.91455078 C97.7109774 14.03517194 141.69928269 35.9516877 177.375 70.3125 C178.3640332 71.26068604 178.3640332 71.26068604 179.37304688 72.22802734 C188.86130305 81.37247479 197.6012044 90.66984009 205.375 101.3125 C206.23306152 102.46355017 207.09113451 103.61459177 207.94921875 104.765625 C213.98736829 112.95680614 219.34595521 121.47054105 224.375 130.3125 C224.73948242 130.94430176 225.10396484 131.57610352 225.47949219 132.22705078 C247.08534998 169.97532572 256.85198095 212.74189997 256.6875 255.9375 C256.68534485 256.95540619 256.6831897 257.97331238 256.68096924 259.02206421 C256.63129854 273.63113523 256.38040191 287.96325853 253.375 302.3125 C253.07698486 303.77478027 253.07698486 303.77478027 252.77294922 305.26660156 C242.65232806 353.6484774 220.7358123 397.63678269 186.375 433.3125 C185.74287598 433.97185547 185.11075195 434.63121094 184.45947266 435.31054688 C175.31502521 444.79880305 166.01765991 453.5387044 155.375 461.3125 C154.22394983 462.17056152 153.07290823 463.02863451 151.921875 463.88671875 C143.73224019 469.92427396 135.22961724 475.30707302 126.375 480.3125 C125.66778809 480.7146875 124.96057617 481.116875 124.23193359 481.53125 C101.09654164 494.5566741 75.92537591 503.30551461 49.9375 508.625 C49.21860596 508.77235596 48.49971191 508.91971191 47.7590332 509.0715332 C33.08339502 511.86090125 18.55831162 512.66142619 3.64770508 512.62817383 C0.70811513 512.6250221 -2.2304558 512.64854926 -5.16992188 512.67382812 C-18.54306192 512.71848737 -31.43916711 511.51301542 -44.625 509.3125 C-46.33055054 509.03031616 -46.33055054 509.03031616 -48.07055664 508.74243164 C-91.33802759 500.97044532 -132.38793216 480.98345309 -165.625 452.3125 C-166.37007813 451.67828125 -167.11515625 451.0440625 -167.8828125 450.390625 C-181.38779833 438.57948485 -194.05918743 425.82889772 -204.625 411.3125 C-205.48149066 410.16255169 -206.33826433 409.01281411 -207.1953125 407.86328125 C-213.23534209 399.67315742 -218.61867614 391.16870382 -223.625 382.3125 C-224.0271875 381.60528809 -224.429375 380.89807617 -224.84375 380.16943359 C-237.8691741 357.03404164 -246.61801461 331.86287591 -251.9375 305.875 C-252.08485596 305.15610596 -252.23221191 304.43721191 -252.3840332 303.6965332 C-255.35789088 288.05024391 -255.99800362 272.57681954 -255.9375 256.6875 C-255.93534485 255.66959381 -255.9331897 254.65168762 -255.93096924 253.60293579 C-255.88129854 238.99386477 -255.63040191 224.66174147 -252.625 210.3125 C-252.42632324 209.33764648 -252.22764648 208.36279297 -252.02294922 207.35839844 C-241.90232806 158.9765226 -219.9858123 114.98821731 -185.625 79.3125 C-184.99287598 78.65314453 -184.36075195 77.99378906 -183.70947266 77.31445312 C-174.56502521 67.82619695 -165.26765991 59.0862956 -154.625 51.3125 C-153.47394983 50.45443848 -152.32290823 49.59636549 -151.171875 48.73828125 C-142.98224019 42.70072604 -134.47961724 37.31792698 -125.625 32.3125 C-124.91778809 31.9103125 -124.21057617 31.508125 -123.48193359 31.09375 C-100.34654164 18.0683259 -75.17537591 9.31948539 -49.1875 4 C-48.46860596 3.85264404 -47.74971191 3.70528809 -47.0090332 3.5534668 C-31.36274391 0.57960912 -15.88931954 -0.06050362 0 0 Z " fill="#4BAE4F" transform="translate(255.625,-0.3125)"/>
<path d="M0 0 C2.0567662 0.0006028 4.1135125 -0.00190294 6.17027664 -0.00460434 C30.85800784 -0.01606533 55.55194864 0.84165407 79.97053909 4.68811417 C81.4043573 4.90699317 82.83819568 5.12573999 84.27205276 5.34436417 C95.58817975 7.09690499 106.80880248 9.22622679 117.97444534 11.76819229 C120.59409136 12.36113982 123.21869106 12.92494038 125.84553909 13.48498917 C154.67187256 19.79418001 182.57505102 30.64929282 208.65803909 44.37561417 C209.70475784 44.89768448 210.75147659 45.41975479 211.82991409 45.95764542 C219.89546225 50.088514 226.19867534 54.72720477 229.65803909 63.37561417 C231.5766075 69.99467518 231.53268175 76.24468819 228.65803909 82.56311417 C225.34691768 88.51938074 220.93106307 92.66471527 214.90803909 95.81311417 C203.67849539 97.75668904 196.61646912 95.56740934 186.84553909 89.93811417 C184.47597347 88.63023221 182.09407923 87.3460202 179.70882034 86.06702042 C179.11552933 85.7473027 178.52223831 85.42758499 177.91096878 85.09817886 C168.86715403 80.28304147 159.27336381 76.8526337 149.65803909 73.37561417 C148.14452103 72.80923277 146.63147068 72.24159938 145.11897659 71.67248917 C126.12488165 64.62257371 106.5849652 60.79375715 86.65803909 57.37561417 C85.55492386 57.18579971 84.45180862 56.99598526 83.31526566 56.80041885 C69.81725436 54.50177154 56.3147242 52.44497523 42.65803909 51.37561417 C41.55476273 51.28876358 40.45148636 51.20191299 39.31477737 51.11243057 C27.76469927 50.29445301 16.23451152 50.13480241 4.65803909 50.12561417 C3.65379898 50.12427475 2.64955887 50.12293533 1.61488724 50.12155533 C-16.21541487 50.12667969 -33.65204216 51.13097191 -51.34196091 53.37561417 C-52.28491013 53.4877626 -53.22785934 53.59991104 -54.19938278 53.71545792 C-69.72757601 55.58576818 -85.88216779 58.41702052 -100.67789841 63.52795792 C-106.93851932 65.51997366 -114.13314053 65.56673507 -120.29899216 63.27795792 C-126.79767897 59.62427342 -130.43346741 55.28348181 -133.65446091 48.68811417 C-135.37768042 40.38532924 -135.22582267 33.02723355 -130.94352341 25.56311417 C-123.26391266 15.07388973 -109.17241464 12.86811033 -97.21696091 10.31311417 C-96.12125778 10.07012589 -95.02555466 9.8271376 -93.89664841 9.57678604 C-62.69505746 2.7694945 -31.90090132 -0.01143317 0 0 Z " fill="#212121" transform="translate(213.34196090698242,133.62438583374023)"/>
<path d="M0 0 C3.24020071 0.0053553 6.48026249 0.0000273 9.72045898 -0.00634766 C24.64828448 -0.01205873 39.44318832 0.29034079 54.24975586 2.38037109 C55.61765259 2.57107178 55.61765259 2.57107178 57.01318359 2.765625 C67.37761306 4.27244482 77.62946031 6.30995062 87.86791992 8.50390625 C90.53063582 9.07045094 93.19752292 9.60831198 95.86694336 10.14208984 C124.89836411 16.21938045 178.75482837 30.3152711 195.81225586 56.13037109 C198.39032224 60.50187495 198.44799202 65.18128577 197.81225586 70.13037109 C195.66719881 77.92707546 191.32189988 82.51952455 184.43725586 86.50537109 C173.55482256 89.09642664 166.1308197 84.2124235 156.9230957 79.07666016 C144.00571289 71.89043799 130.62489126 66.37255765 116.81225586 61.13037109 C115.93762695 60.78772217 115.06299805 60.44507324 114.16186523 60.09204102 C106.96083192 57.34473689 99.60856197 55.40425035 92.13452148 53.57543945 C90.07734615 53.07156722 88.02284415 52.55778354 85.96850586 52.04248047 C72.0476209 48.57861588 58.08875372 45.69255063 43.81225586 44.13037109 C43.00304687 44.03868652 42.19383789 43.94700195 41.36010742 43.85253906 C17.40750767 41.22814409 -7.64692761 40.4856593 -31.56958008 43.77539062 C-34.58724493 44.1845369 -37.60956283 44.54420823 -40.63305664 44.90771484 C-54.32687685 46.6351573 -67.55201304 49.16674475 -80.86352539 52.84399414 C-94.93924778 56.65928857 -94.93924778 56.65928857 -101.64086914 54.24755859 C-106.74673671 50.71785015 -111.15951242 47.21506626 -113.18774414 41.13037109 C-114.30910938 26.49747383 -114.30910938 26.49747383 -109.18774414 20.13037109 C-102.67233366 13.95787695 -95.00240521 12.14509093 -86.50024414 10.19287109 C-85.3889917 9.93344727 -84.27773926 9.67402344 -83.1328125 9.40673828 C-79.81989182 8.6384282 -76.50424491 7.88305573 -73.18774414 7.13037109 C-72.28604492 6.92202637 -71.3843457 6.71368164 -70.45532227 6.49902344 C-59.0944949 3.8849689 -47.80892666 2.07472568 -36.18774414 1.13037109 C-34.69005493 0.99791992 -34.69005493 0.99791992 -33.16210938 0.86279297 C-22.10980739 -0.00835486 -11.08079472 -0.02175823 0 0 Z " fill="#212121" transform="translate(210.187744140625,221.86962890625)"/>
<path d="M0 0 C1.78686722 0.00007553 1.78686722 0.00007553 3.60983276 0.00015259 C17.39265328 0.02715184 30.90913787 0.51915736 44.5625 2.4375 C45.62799072 2.57792725 46.69348145 2.71835449 47.79125977 2.86303711 C81.04780528 7.43479726 115.14549487 18.06155154 144.125 35.25 C145.00828979 35.77279541 145.00828979 35.77279541 145.90942383 36.30615234 C150.73473531 39.29362234 154.4169913 42.71923694 157.5625 47.4375 C158.21575637 53.05854321 158.62009084 59.30560091 156.0625 64.5 C152.18004282 69.06188719 148.39300513 71.02749036 142.48828125 71.8828125 C136.78225055 71.23556126 132.53165017 68.64333798 127.5625 65.875 C113.5617809 58.22165767 99.64772877 51.7352751 84.5 46.75 C83.78660461 46.51282257 83.07320923 46.27564514 82.3381958 46.03128052 C70.22043894 42.02527519 58.22769065 39.13486873 45.5625 37.4375 C44.15727043 37.22844708 42.75230559 37.01760417 41.34765625 36.8046875 C27.65580156 34.83083637 14.05973941 34.23200626 0.25 34.25 C-0.53918823 34.25027191 -1.32837646 34.25054382 -2.14147949 34.25082397 C-15.66177406 34.27213591 -28.99637629 34.91310534 -42.4375 36.4375 C-43.93627686 36.59822998 -43.93627686 36.59822998 -45.46533203 36.76220703 C-67.24640392 39.08378659 -67.24640392 39.08378659 -88.4375 44.4375 C-93.93052515 44.92101304 -98.82105065 45.13026401 -103.9375 42.9375 C-108.54675777 38.32824223 -110.64160376 33.86167009 -110.9375 27.3125 C-110.6800548 21.52442163 -108.45255984 18.31557903 -104.25390625 14.40234375 C-100.98450325 12.12147036 -97.89166693 11.21711462 -94.0625 10.375 C-92.16371094 9.92447266 -92.16371094 9.92447266 -90.2265625 9.46484375 C-88.63131401 9.11728157 -87.03478346 8.77558689 -85.4375 8.4375 C-84.36395264 8.20844971 -83.29040527 7.97939941 -82.18432617 7.7434082 C-54.94590692 2.10192892 -27.80443183 -0.04705729 0 0 Z " fill="#212221" transform="translate(217.4375,305.5625)"/>
</svg>
